<?xml version="1.0" standalone="no"?>
<!DOCTYPE svg PUBLIC "-//W3C//DTD SVG 20010904//EN"
 "http://www.w3.org/TR/2001/REC-SVG-20010904/DTD/svg10.dtd">
<svg version="1.0" xmlns="http://www.w3.org/2000/svg"
 width="919.000000pt" height="919.000000pt" viewBox="0 0 919.000000 919.000000"
 preserveAspectRatio="xMidYMid meet">
<metadata>
Created by potrace 1.14, written by Peter Selinger 2001-2017
</metadata>
<g transform="translate(0.000000,919.000000) scale(0.100000,-0.100000)"
fill="#000000" stroke="none">
<path d="M4154 8002 c-90 -3 -79 4 -110 -77 -9 -25 -13 -43 -18 -77 -3 -14 -9
-36 -16 -47 -6 -12 -9 -21 -6 -21 2 0 -4 -24 -14 -53 -11 -30 -21 -65 -24 -78
-2 -13 -7 -36 -11 -50 -3 -14 -8 -41 -9 -60 -4 -50 -21 -84 -42 -86 -11 -1
-32 -4 -49 -8 -16 -3 -43 -8 -60 -10 -16 -2 -42 -8 -57 -14 -16 -6 -28 -8 -28
-6 0 2 -12 0 -27 -6 -16 -6 -41 -13 -58 -15 -16 -3 -41 -7 -55 -10 -14 -2 -31
-5 -37 -6 -7 -1 -13 -4 -13 -8 0 -4 -6 -7 -12 -8 -7 -1 -28 -5 -45 -8 -23 -4
-33 -2 -33 6 0 17 -36 61 -44 53 -3 -3 -6 0 -6 8 0 8 -10 25 -21 39 -11 14
-17 19 -13 11 5 -9 3 -12 -4 -7 -7 4 -12 13 -12 21 0 8 -11 26 -25 40 -14 14
-24 25 -21 25 5 0 -29 37 -130 142 l-74 77 -37 -15 c-20 -9 -44 -17 -52 -19
-32 -7 -111 -46 -111 -55 0 -6 -3 -9 -7 -8 -8 3 -202 -91 -213 -102 -3 -3 -12
-5 -20 -5 -12 0 -14 -13 -11 -70 3 -72 6 -95 14 -130 5 -23 19 -101 19 -112 0
-5 4 -19 9 -32 5 -13 12 -40 15 -60 3 -20 9 -38 13 -41 3 -3 7 -14 8 -25 1
-11 5 -41 8 -67 4 -31 2 -49 -6 -54 -8 -5 -10 -3 -5 7 4 8 -1 5 -11 -6 -10
-11 -25 -21 -33 -23 -8 -2 -20 -10 -26 -18 -6 -7 -16 -14 -22 -14 -6 0 -17 -8
-24 -17 -7 -10 -25 -24 -40 -32 -15 -8 -52 -38 -83 -67 -31 -30 -53 -48 -50
-41 4 6 -11 -7 -32 -31 -37 -40 -41 -42 -69 -32 -16 6 -31 11 -32 10 -2 -1 -9
5 -15 14 -7 8 -19 16 -27 18 -8 2 -21 9 -28 16 -8 7 -18 10 -23 7 -5 -4 -9 -1
-9 4 0 6 -3 10 -7 10 -8 -1 -12 0 -30 6 -5 2 -18 6 -30 10 -13 4 -23 11 -23
16 0 5 -4 9 -9 9 -5 0 -30 9 -55 20 -26 11 -48 19 -51 20 -3 0 -20 6 -39 14
-19 8 -37 12 -40 8 -3 -3 -6 0 -6 7 0 7 -6 11 -12 8 -7 -2 -20 2 -29 10 -15
12 -20 10 -43 -17 -14 -17 -26 -28 -26 -24 0 9 -35 -37 -35 -46 0 -3 -19 -25
-43 -50 -62 -66 -82 -90 -76 -90 3 0 -7 -12 -21 -27 -14 -16 -28 -36 -31 -45
-3 -10 -10 -18 -15 -18 -5 0 -9 -7 -9 -15 0 -8 -4 -15 -10 -15 -5 0 -10 -6
-10 -14 0 -8 -7 -16 -15 -20 -12 -4 -9 -15 20 -54 19 -27 35 -54 35 -60 0 -6
8 -16 17 -21 10 -6 14 -11 9 -11 -5 0 4 -12 19 -27 15 -15 36 -45 46 -66 11
-21 24 -35 29 -32 6 4 10 -1 10 -9 0 -8 6 -19 13 -23 7 -4 23 -25 37 -45 14
-21 28 -38 33 -38 4 0 7 -7 7 -16 0 -8 5 -12 10 -9 6 3 10 1 10 -5 0 -6 7 -18
15 -26 17 -17 12 -31 -32 -101 -19 -29 -31 -53 -27 -53 4 0 -1 -9 -10 -19 -10
-11 -15 -25 -11 -30 3 -6 1 -11 -5 -11 -6 0 -8 -4 -5 -10 3 -5 1 -10 -4 -10
-6 0 -11 -5 -11 -12 0 -6 -7 -19 -16 -29 -8 -9 -16 -23 -18 -31 -1 -7 -5 -19
-9 -25 -5 -7 -5 -13 0 -13 4 0 2 -4 -5 -9 -8 -5 -15 -20 -15 -35 -1 -14 -6
-26 -11 -26 -5 0 -7 -3 -3 -6 3 -4 -1 -13 -9 -22 -12 -12 -51 -15 -202 -17
-103 -2 -207 -6 -232 -9 -25 -3 -65 -8 -89 -11 -50 -5 -53 -7 -57 -38 -1 -12
-3 -22 -4 -22 -1 0 -4 -11 -14 -60 -1 -5 -5 -16 -9 -22 -5 -7 -5 -17 -2 -23 3
-5 2 -10 -4 -10 -5 0 -8 -8 -6 -17 1 -10 -3 -29 -10 -43 -7 -14 -15 -41 -18
-60 -3 -19 -8 -46 -12 -60 -3 -14 -8 -50 -11 -80 -3 -30 -7 -57 -7 -60 -1 -3
3 -7 8 -10 6 -2 18 -11 28 -20 10 -8 20 -13 24 -12 3 2 9 -1 13 -7 6 -11 52
-37 195 -111 43 -22 84 -45 90 -50 7 -6 15 -7 18 -3 4 3 7 0 7 -7 0 -7 3 -10
7 -7 3 4 21 -3 40 -14 18 -11 33 -17 33 -14 0 4 6 2 14 -4 11 -9 13 -30 10
-84 -5 -81 -5 -262 -1 -352 4 -65 0 -88 -14 -80 -9 6 -143 -59 -171 -83 -10
-8 -18 -12 -18 -8 0 3 -15 -1 -32 -11 -18 -9 -36 -17 -40 -18 -3 0 -18 -10
-32 -22 -14 -13 -28 -23 -31 -22 -13 1 -95 -44 -95 -52 0 -6 -5 -7 -10 -4 -6
3 -13 -1 -16 -9 -3 -9 -10 -14 -14 -11 -9 6 -22 -23 -15 -35 3 -4 7 -25 10
-46 5 -43 10 -73 20 -119 4 -16 8 -34 9 -40 1 -5 5 -16 9 -22 5 -7 6 -13 3
-13 -3 0 1 -17 8 -37 7 -21 11 -44 9 -50 -3 -7 -1 -13 5 -13 5 0 9 -6 10 -12
6 -44 9 -58 14 -64 4 -3 4 -12 2 -18 -7 -19 25 -41 65 -44 20 -1 68 -5 106 -9
39 -3 146 -7 238 -7 165 -1 168 -1 174 -23 3 -13 9 -23 15 -23 5 0 6 -5 3 -10
-4 -6 -1 -17 5 -25 7 -8 9 -15 5 -15 -4 0 -1 -10 7 -22 8 -13 18 -36 22 -51 3
-15 11 -25 16 -22 6 3 10 -3 10 -14 0 -12 5 -21 12 -21 6 0 8 -3 5 -7 -4 -3
-2 -12 4 -20 6 -7 9 -13 5 -13 -9 0 51 -109 74 -135 23 -26 19 -47 -19 -87
-17 -18 -31 -36 -31 -39 0 -3 -13 -21 -30 -39 -16 -18 -30 -39 -30 -46 0 -7
-5 -16 -12 -20 -7 -5 -8 -2 -3 7 4 8 -2 5 -14 -7 -12 -11 -23 -30 -24 -42 0
-11 -4 -19 -7 -17 -4 2 -14 -9 -24 -26 -9 -16 -21 -29 -25 -29 -5 0 -15 -15
-22 -32 -7 -18 -21 -42 -31 -52 -10 -11 -18 -26 -18 -33 0 -7 -4 -13 -10 -13
-5 0 -10 -4 -10 -10 0 -9 52 -89 75 -116 6 -7 26 -33 45 -59 19 -26 52 -66 73
-89 22 -22 46 -52 54 -66 8 -14 28 -36 44 -49 25 -19 34 -21 57 -13 15 6 36
13 47 18 18 6 33 11 60 17 25 6 75 30 75 36 0 4 10 8 22 8 13 1 24 7 26 13 2
5 13 10 23 10 13 0 18 4 13 12 -4 7 -3 8 4 4 6 -4 25 0 42 9 16 8 32 14 34 13
2 -2 13 6 25 16 12 11 21 15 21 10 0 -5 7 0 15 10 8 11 15 16 15 12 0 -5 6 -3
14 3 29 24 55 21 76 -10 12 -16 28 -29 36 -29 8 0 12 -4 9 -10 -3 -5 -2 -10 3
-10 5 0 22 -12 38 -27 16 -16 43 -38 59 -50 17 -13 47 -36 69 -53 21 -16 43
-30 48 -30 5 0 6 -5 3 -10 -4 -6 -3 -9 2 -8 12 3 56 -22 75 -45 13 -14 15 -24
8 -38 -6 -10 -9 -22 -8 -26 1 -4 -4 -26 -10 -48 -6 -22 -13 -51 -16 -65 -2
-14 -5 -25 -6 -25 -2 0 -8 -28 -15 -65 -2 -14 -9 -43 -14 -64 -5 -22 -8 -43
-5 -47 2 -4 1 -10 -4 -13 -5 -3 -10 -29 -11 -58 -2 -29 -4 -64 -5 -78 -4 -34
4 -52 20 -46 8 3 14 1 14 -4 0 -6 6 -10 14 -10 7 0 25 -9 40 -21 14 -11 26
-17 26 -12 0 4 4 4 8 -2 13 -18 72 -46 82 -40 6 3 10 2 10 -4 0 -5 10 -13 22
-17 12 -3 28 -13 36 -20 7 -8 17 -12 22 -9 5 3 11 1 15 -5 4 -6 11 -8 16 -5 5
4 9 1 9 -5 0 -6 4 -9 9 -6 5 4 11 3 13 -1 7 -17 94 -39 107 -29 29 24 101 102
101 109 0 5 4 6 9 2 11 -6 33 28 26 39 -3 3 -3 4 0 2 7 -4 65 52 65 64 0 4 7
11 16 14 9 4 14 9 11 12 -3 4 6 19 21 34 40 41 63 70 55 70 -4 0 2 7 13 15 10
8 15 15 9 15 -5 0 0 7 12 15 20 14 29 14 90 -4 37 -11 82 -22 98 -24 17 -2 37
-6 45 -10 17 -6 92 -24 135 -31 17 -3 52 -10 80 -15 27 -5 52 -8 55 -6 3 2 6
-7 7 -18 1 -12 4 -38 8 -57 3 -19 8 -46 10 -60 6 -45 16 -84 35 -140 10 -30
24 -80 30 -110 7 -30 22 -79 33 -107 l21 -53 50 -1 c114 -3 335 -2 394 1 62 3
70 8 76 42 1 7 6 20 11 28 5 8 11 21 12 27 5 23 10 38 18 56 4 10 5 21 1 24
-3 3 -1 12 5 20 6 7 9 13 5 13 -3 0 0 16 9 36 8 19 14 38 13 42 -1 4 1 14 4
22 15 39 38 133 42 170 8 57 20 67 91 76 22 3 74 15 115 25 41 11 93 22 115
25 22 2 47 7 55 11 15 6 27 10 53 16 6 2 22 7 34 11 23 7 58 -9 63 -29 1 -5 6
-9 12 -7 5 1 7 -2 3 -8 -3 -5 -1 -10 5 -10 6 0 9 -4 5 -9 -3 -5 5 -17 17 -25
12 -9 19 -16 16 -16 -4 0 3 -10 15 -23 36 -38 57 -67 57 -77 0 -6 4 -10 9 -10
10 0 67 -52 64 -59 -1 -6 77 -91 114 -124 22 -19 14 -21 118 24 40 17 37 16
63 24 12 4 22 12 22 17 0 5 5 6 10 3 6 -3 10 -2 10 3 0 5 10 13 23 17 30 10
36 12 42 15 3 1 10 3 15 4 6 0 15 8 20 16 5 8 10 11 10 7 0 -10 71 31 82 47 4
6 8 7 8 2 0 -5 6 -3 13 3 8 6 17 8 20 4 4 -3 7 -1 7 6 0 7 5 9 11 5 7 -4 9 0
5 12 -3 11 -8 42 -11 69 -7 51 -11 77 -19 118 -7 31 -18 90 -20 104 -1 7 -5
15 -8 19 -4 3 -4 12 -2 19 3 7 1 16 -5 19 -6 4 -8 13 -4 21 3 9 1 21 -4 28 -5
6 -8 23 -7 37 1 14 -3 36 -8 50 -19 49 -17 62 10 86 15 13 33 24 40 24 6 0 12
4 12 10 0 5 4 9 9 7 5 -1 21 12 36 28 15 17 24 23 20 15 -3 -8 2 -6 12 6 10
11 25 18 33 16 8 -3 12 -1 8 2 -7 8 16 34 48 53 10 6 18 16 16 23 -1 6 2 9 8
5 5 -3 31 16 58 43 52 53 71 55 130 13 16 -11 32 -18 36 -14 3 3 6 1 6 -6 0
-7 6 -11 14 -8 8 3 17 -1 20 -10 4 -9 9 -13 13 -10 3 4 12 2 20 -4 7 -6 13 -8
13 -5 0 4 10 1 23 -6 12 -7 25 -11 30 -10 4 1 7 -2 7 -7 0 -10 39 -27 53 -23
4 1 7 -2 7 -6 0 -5 19 -15 43 -22 23 -7 63 -21 89 -31 26 -11 52 -19 58 -19
14 0 100 84 100 97 0 5 23 32 50 62 28 30 48 56 46 58 -2 3 11 21 29 40 19 20
32 40 29 45 -3 4 1 8 8 8 17 0 59 77 51 96 -3 7 -9 14 -14 14 -5 0 -9 8 -9 17
0 18 -69 123 -81 123 -4 0 -9 10 -13 22 -3 13 -24 43 -46 68 -23 25 -45 55
-50 68 -5 12 -17 22 -25 22 -9 0 -13 4 -10 10 3 5 -3 15 -15 22 -11 7 -20 18
-20 24 0 35 -29 39 -299 40 l-266 1 -27 -25 c-16 -14 -28 -30 -28 -36 0 -10
-50 -66 -117 -129 -24 -23 -43 -47 -43 -54 0 -8 -4 -11 -10 -8 -5 3 -10 -1
-10 -9 0 -9 -4 -16 -8 -16 -13 0 -77 -61 -75 -70 2 -5 -7 -12 -20 -16 -12 -3
-39 -23 -59 -43 -49 -48 -68 -63 -68 -55 0 4 -14 -7 -30 -25 -17 -17 -33 -31
-37 -31 -3 0 -38 -22 -77 -48 -39 -26 -95 -61 -123 -77 -29 -15 -53 -32 -53
-37 0 -5 -4 -7 -9 -3 -5 3 -16 -2 -25 -10 -8 -9 -19 -16 -23 -17 -4 0 -19 -5
-33 -11 -14 -6 -27 -11 -30 -12 -24 -8 -46 -20 -51 -27 -3 -5 -12 -10 -20 -12
-8 -1 -23 -7 -34 -13 -11 -6 -36 -14 -55 -18 -19 -4 -55 -17 -80 -28 -25 -11
-56 -21 -69 -23 -13 -2 -27 -7 -30 -11 -3 -4 -11 -9 -17 -10 -6 -1 -56 -12
-110 -24 -151 -33 -235 -49 -279 -55 -22 -3 -56 -7 -75 -10 -60 -9 -400 -9
-423 0 -12 4 -54 9 -92 11 -39 1 -79 5 -90 8 -11 4 -35 9 -52 12 -18 3 -63 12
-100 21 -82 19 -122 27 -145 28 -10 0 -18 3 -18 6 0 4 -6 7 -12 8 -19 1 -40 8
-68 20 -23 10 -49 19 -68 23 -4 1 -21 8 -38 15 -17 7 -34 10 -38 7 -3 -4 -6
-1 -6 5 0 7 -9 12 -19 12 -11 0 -23 5 -26 10 -4 6 -11 8 -16 5 -5 -4 -9 -2 -9
3 0 5 -24 19 -52 31 -85 35 -102 44 -127 66 -15 12 -21 14 -16 5 4 -8 -2 -5
-14 8 -20 20 -28 24 -47 21 -4 0 -10 4 -13 9 -3 5 -20 18 -37 28 -64 40 -130
85 -163 111 -19 15 -37 28 -40 29 -21 3 -40 18 -45 37 -3 12 -8 18 -11 15 -6
-6 -24 10 -120 101 -27 27 -58 51 -67 54 -10 4 -18 13 -18 21 0 8 -3 16 -7 18
-5 2 -29 26 -55 54 -26 29 -49 49 -52 46 -3 -3 -6 2 -6 12 0 9 -7 19 -15 22
-8 4 -13 10 -10 14 3 5 -5 16 -17 24 -12 9 -19 16 -15 16 5 0 -3 11 -17 23
-14 13 -24 26 -21 28 2 3 -11 22 -30 44 -19 21 -35 43 -35 49 0 8 629 10 2147
8 1182 -1 2184 -3 2228 -3 179 -3 1551 4 1565 7 14 4 16 97 17 842 0 617 -2
839 -11 839 -6 1 -32 2 -58 4 l-48 2 -1 466 c-1 256 -1 470 0 474 2 14 -41
107 -50 107 -5 0 -9 7 -9 15 0 8 -5 15 -11 15 -5 0 -8 4 -4 9 3 6 -3 15 -14
21 -11 6 -32 21 -47 35 -15 14 -31 22 -37 18 -5 -3 -8 -2 -4 3 3 5 -1 18 -9
29 -12 16 -28 20 -79 21 -36 1 -65 -2 -65 -8 0 -5 -4 -6 -10 -3 -5 3 -10 0
-10 -8 0 -12 -59 -63 -70 -60 -14 4 -80 -75 -84 -100 -1 -7 -4 -16 -7 -22 -11
-19 -22 -70 -24 -115 -2 -25 -3 -48 -4 -51 0 -4 -29 -7 -63 -8 -89 -1 -98 -14
-98 -141 l0 -98 -31 2 -32 2 -2 400 c-1 219 -3 402 -4 406 -5 28 -55 33 -345
33 -272 1 -301 0 -317 -16 -10 -10 -15 -20 -12 -23 4 -3 2 -6 -3 -6 -5 0 -9
-54 -9 -121 l0 -122 -28 -3 c-15 -1 -42 -12 -60 -23 -39 -24 -88 -77 -80 -85
4 -3 2 -6 -4 -6 -10 0 -17 -18 -30 -70 -2 -8 -4 -108 -5 -222 -2 -180 -4 -208
-17 -209 -9 -1 -52 -2 -96 -3 -44 0 -86 -5 -94 -10 -10 -7 -12 -5 -6 5 4 8 -1
6 -11 -4 -18 -17 -19 -40 -20 -485 l-1 -467 -39 1 c-22 1 -52 2 -69 3 l-30 1
2 137 c1 76 -1 146 -3 155 -4 15 -24 16 -194 14 -237 -4 -219 -20 -222 204 -2
98 -7 160 -13 161 -5 0 -93 1 -194 2 l-183 2 -5 -135 c-2 -74 -5 -152 -5 -172
l-1 -38 -46 -1 c-122 -3 -172 -2 -177 4 -3 3 -8 74 -9 158 -3 111 -7 154 -17
161 -12 7 -147 3 -199 -7 -13 -3 -50 -7 -83 -10 -99 -9 -129 -14 -140 -25 -5
-5 -11 -54 -12 -108 -4 -165 -7 -192 -18 -192 -6 0 -92 -1 -191 -3 l-180 -2
-2 -145 c-1 -80 -2 -150 -2 -157 -2 -18 -185 -17 -201 2 -7 8 -10 15 -6 15 3
0 -4 17 -15 37 -12 21 -23 48 -26 62 -2 13 -9 34 -16 45 -6 12 -10 24 -9 29 1
4 -3 7 -9 7 -5 0 -7 5 -4 10 3 6 1 10 -6 10 -7 0 -10 3 -6 6 3 3 -6 27 -19 54
-13 26 -24 54 -24 62 0 8 -3 18 -7 22 -5 4 -9 11 -9 14 -8 37 -19 53 -36 50
-10 -2 -18 -5 -16 -8 4 -8 -46 -57 -54 -53 -5 2 -8 0 -8 -5 0 -5 -12 -14 -26
-20 -15 -7 -22 -17 -18 -24 4 -6 3 -8 -4 -4 -6 3 -18 -4 -26 -16 -9 -12 -16
-18 -16 -13 -1 6 -10 -1 -20 -14 -11 -13 -20 -20 -20 -17 0 3 -23 -16 -50 -44
-28 -27 -52 -48 -54 -47 -9 5 -84 -68 -79 -77 3 -5 1 -6 -6 -2 -7 5 -31 -11
-61 -41 -54 -54 -74 -55 -85 -3 -4 16 -11 32 -16 35 -5 4 -9 17 -9 31 0 13 -5
24 -12 24 -6 0 -8 3 -5 6 4 4 0 19 -7 33 -26 47 -56 117 -56 128 0 10 -56 122
-66 132 -2 2 -12 -3 -22 -13 -37 -36 -73 -66 -80 -66 -4 0 -25 -17 -47 -37
-21 -21 -35 -32 -31 -25 4 6 5 12 1 12 -3 0 -10 -12 -15 -26 -6 -14 -14 -23
-19 -20 -12 8 -33 -19 -23 -30 4 -5 3 -6 -2 -2 -5 4 -21 -5 -35 -20 -15 -15
-39 -34 -55 -42 -15 -8 -34 -26 -41 -40 -8 -14 -14 -20 -15 -15 0 6 -5 3 -10
-5 -5 -8 -13 -15 -17 -16 -18 -2 -49 -19 -61 -33 -9 -10 -11 -11 -6 -2 5 10 3
12 -5 7 -7 -5 -10 -14 -7 -21 4 -12 -22 -45 -36 -45 -5 0 -16 27 -23 60 -2 8
-8 23 -14 35 -5 11 -15 35 -23 53 -7 17 -17 32 -21 32 -5 0 -6 4 -2 9 3 5 -3
17 -12 27 -10 10 -17 19 -15 21 3 4 -9 55 -17 68 -3 6 -6 12 -7 15 -3 17 -55
120 -60 120 -12 0 -63 -48 -57 -54 4 -3 0 -6 -8 -6 -8 0 -20 -9 -27 -20 -7
-12 -16 -19 -21 -16 -4 3 -26 -14 -48 -37 -22 -23 -46 -43 -54 -45 -23 -6 -39
-23 -32 -35 3 -5 2 -7 -4 -4 -11 7 -44 -28 -35 -38 4 -4 2 -5 -3 -4 -15 4 -56
-11 -51 -19 2 -4 -7 -17 -20 -30 -13 -12 -24 -20 -24 -17 0 4 -6 0 -14 -7 -7
-7 -23 -19 -34 -27 -12 -8 -19 -17 -17 -21 2 -3 -6 -7 -18 -8 -21 -1 -22 2
-20 61 4 119 15 243 29 327 3 19 7 51 9 70 8 76 14 107 31 165 24 81 23 77 26
100 2 11 7 23 11 26 4 3 10 17 12 30 3 13 7 35 11 49 3 14 6 31 6 38 1 6 6 12
11 12 6 0 8 3 4 6 -5 5 12 46 48 115 8 14 15 37 17 51 2 15 12 35 21 46 9 10
14 22 10 25 -3 4 -1 7 5 7 7 0 12 6 12 14 0 7 8 24 19 37 10 13 16 30 14 37
-3 6 0 12 6 12 6 0 11 4 11 9 0 5 18 36 40 69 21 33 41 66 42 73 2 8 17 29 35
48 18 20 40 52 50 73 10 20 27 39 38 42 10 3 16 8 13 11 -3 4 5 17 19 31 13
13 22 28 18 33 -3 5 0 13 6 17 8 5 9 3 4 -7 -8 -12 -6 -12 8 0 10 8 16 15 14
17 -5 5 193 205 243 244 24 19 57 49 73 67 17 18 33 31 36 28 4 -2 24 12 46
31 22 19 54 41 72 49 18 9 37 23 42 33 6 9 11 13 11 9 0 -5 12 1 26 12 14 11
49 32 78 45 28 13 61 34 72 45 12 11 25 17 28 14 3 -4 6 -1 6 5 0 7 3 11 8 11
4 -1 10 0 15 1 4 1 11 3 15 4 16 2 107 51 114 61 4 5 8 6 8 1 0 -5 7 -3 15 4
8 7 15 10 15 6 0 -4 13 0 30 9 16 8 33 15 37 15 12 0 76 22 98 33 11 6 25 12
30 13 6 2 21 6 35 9 14 3 39 8 55 11 17 3 48 10 70 16 22 7 46 11 53 9 6 -1
12 2 12 6 0 4 12 9 28 10 25 2 37 4 102 17 98 20 195 28 375 30 l170 1 1 30
c1 17 5 95 9 175 4 80 9 179 10 220 2 41 6 129 9 195 4 66 9 168 11 228 l5
107 -53 1 c-139 3 -260 4 -333 1z m-1584 -1696 c0 -2 -8 -10 -17 -17 -16 -13
-17 -12 -4 4 13 16 21 21 21 13z m4690 -223 c2 -519 3 -610 13 -630 11 -25 34
-33 98 -33 29 0 49 -5 51 -12 2 -7 4 -49 3 -93 l-1 -80 -104 0 -105 0 0 192
c0 161 -3 195 -16 208 -11 12 -38 16 -102 17 l-87 2 0 131 c0 124 -2 135 -27
186 -33 64 -95 114 -153 124 -43 7 -42 6 -42 110 0 60 -21 55 237 55 l235 0 0
-177z m330 -483 c0 -67 0 -67 -27 -65 -27 1 -28 3 -31 67 -2 57 0 67 15 70 37
8 43 -2 43 -72z m-485 -228 c-1 -92 2 -180 7 -196 13 -48 31 -54 172 -55 72
-1 132 -4 134 -6 3 -3 5 -98 3 -159 -1 -9 -17 -17 -42 -21 -22 -4 -38 -9 -35
-12 3 -3 -2 -19 -10 -35 -12 -22 -15 -68 -15 -204 l-1 -175 -151 3 -152 3 -3
512 -3 512 33 3 c67 6 64 13 63 -170z m487 -84 c-4 -56 -5 -58 -32 -58 l-28 0
-1 94 -1 95 27 3 c26 3 28 0 33 -37 3 -22 3 -66 2 -97z m-1130 -353 l3 -425
-67 0 -68 0 0 425 0 425 65 0 65 0 2 -425z m1128 95 l0 -100 -30 0 -30 0 0 94
c0 102 -4 94 53 105 4 0 7 -44 7 -99z m-4129 -765 c5 -8 5 -110 0 -137 0 -4
-62 -7 -136 -7 l-135 0 0 73 c0 40 2 75 4 77 9 9 261 3 267 -6z m356 2 c7 -5
10 -101 4 -140 0 -4 -62 -7 -136 -6 l-135 1 0 72 c0 40 2 75 4 77 7 6 252 3
263 -4z m-1435 -48 c6 -95 7 -94 -117 -94 -164 -1 -155 -5 -155 76 l0 68 134
-1 134 -1 4 -48z m363 -21 l1 -68 -73 -1 c-40 0 -98 -1 -128 -1 -30 0 -59 1
-65 1 -11 1 -14 123 -4 134 3 3 65 5 137 4 l132 -2 0 -67z m359 5 c-1 -38 -2
-71 -3 -74 -1 -6 -230 -5 -264 0 -8 1 -8 119 0 134 2 4 64 7 136 7 l133 0 -2
-67z m3456 -69 c0 -46 0 -87 0 -91 0 -12 -163 -4 -171 8 -7 13 -12 146 -5 158
3 4 44 8 91 8 l85 0 0 -83z m270 31 c3 -27 3 -69 2 -92 l-4 -41 -79 1 c-44 0
-83 5 -86 10 -6 10 -13 158 -7 168 2 3 40 5 86 5 l83 -1 5 -50z m270 29 c4
-10 7 -50 6 -89 l-2 -70 -74 -1 c-110 -2 -106 -5 -105 84 0 42 3 82 7 87 3 6
41 10 84 9 67 0 78 -3 84 -20z m-4719 -161 c1 -30 1 -99 0 -118 -1 -13 -23
-15 -136 -15 -113 0 -135 2 -136 15 -1 19 -1 55 0 103 l1 37 135 0 c133 0 135
0 136 -22z m355 18 c6 -1 10 -31 11 -76 l0 -75 -56 -1 c-152 -1 -213 0 -218 4
-2 3 -5 25 -5 49 0 98 -1 96 35 100 25 2 184 2 233 -1z m364 0 c3 -1 6 -35 6
-76 1 -70 0 -75 -20 -76 -49 -2 -249 1 -252 4 -9 9 -5 140 4 146 8 5 240 7
262 2z m360 0 c3 0 6 -35 6 -76 l0 -75 -137 0 c-156 0 -146 -7 -141 94 l4 62
131 -2 c73 -1 134 -2 137 -3z m356 -3 c6 -4 10 -37 9 -75 l-1 -68 -137 -5
c-126 -5 -137 -4 -138 13 -1 22 -1 102 0 125 1 16 13 18 129 17 70 0 132 -3
138 -7z"/>
<path d="M4689 7762 c0 -20 -2 -60 -3 -88 l-3 -52 125 -1 124 -2 -5 88 c-3 48
-6 88 -6 88 -1 0 -53 1 -116 2 l-115 3 -1 -38z"/>
<path d="M4698 7388 c-16 -5 -28 -13 -29 -16 0 -4 -2 -52 -3 -108 l-2 -101
142 0 142 1 -2 105 c0 58 -5 109 -9 112 -4 3 -51 7 -104 7 -52 1 -98 4 -102 6
-3 2 -18 -1 -33 -6z"/>
<path d="M5359 7313 c-1 -4 -3 -33 -4 -64 l-3 -56 67 -3 c57 -1 104 -1 172 1
12 0 15 13 15 65 -1 59 -2 63 -21 57 -22 -8 -204 -5 -217 3 -4 3 -9 2 -9 -3z"/>
<path d="M5355 7038 c-3 -10 -1 -70 4 -110 1 -5 56 -8 124 -8 l123 0 1 63 1
63 -124 2 c-95 2 -125 0 -129 -10z"/>
<path d="M5343 6653 l-2 -73 32 -1 c18 0 55 -2 82 -4 28 -1 75 0 106 2 l56 6
0 71 1 72 -137 0 -137 1 -1 -74z"/>
<path d="M4673 6662 c-13 -2 -23 -9 -24 -15 0 -7 -2 -80 -4 -164 l-4 -152 32
5 c18 3 95 6 172 7 l140 3 -2 44 c-6 179 -11 262 -18 268 -7 7 -251 11 -292 4z"/>
<path d="M5326 6300 c-2 -8 -3 -35 -2 -60 1 -25 -1 -56 -5 -70 l-6 -25 165 -4
c104 -2 162 0 159 7 -4 5 -7 45 -8 89 l-1 79 -149 0 c-124 -1 -150 -4 -153
-16z"/>
<path d="M4634 5903 c-8 -8 -14 -29 -15 -46 0 -18 -3 -89 -5 -159 l-5 -126
199 1 200 2 -4 153 c-1 85 -8 159 -13 166 -9 11 -33 13 -270 20 -52 2 -77 -2
-87 -11z"/>
<path d="M5302 5716 c-1 -39 -4 -99 -6 -133 -3 -62 -3 -63 23 -64 14 -1 37 -3
51 -5 42 -7 184 -5 220 2 19 3 41 7 47 7 10 0 12 33 11 131 l-2 131 -171 1
-171 1 -2 -71z"/>
</g>
</svg>
